<?xml version="1.0" standalone="no"?>
<!DOCTYPE svg PUBLIC "-//W3C//DTD SVG 20010904//EN"
 "http://www.w3.org/TR/2001/REC-SVG-20010904/DTD/svg10.dtd">
<svg version="1.0" xmlns="http://www.w3.org/2000/svg"
 width="1080.000000pt" height="1080.000000pt" viewBox="0 0 1080.000000 1080.000000"
 preserveAspectRatio="xMidYMid meet">

<g transform="translate(0.000000,1080.000000) scale(0.100000,-0.100000)"
fill="#000000" stroke="none">
<path d="M0 5400 l0 -5400 5400 0 5400 0 0 5400 0 5400 -5400 0 -5400 0 0
-5400z m5122 3614 c18 -9 41 -26 51 -38 24 -28 82 -151 79 -167 0 -3 17 -28
40 -55 37 -44 128 -218 128 -244 0 -37 48 -133 99 -199 60 -77 81 -129 96
-231 7 -44 39 -98 80 -132 16 -14 17 -19 6 -27 -10 -6 0 -18 41 -49 63 -47
108 -118 135 -212 14 -50 22 -64 47 -77 34 -18 169 -151 231 -228 22 -28 54
-68 73 -90 51 -61 80 -104 178 -262 37 -60 77 -125 90 -145 13 -21 24 -40 24
-42 0 -3 13 -28 30 -55 16 -28 44 -95 62 -148 18 -54 42 -114 54 -133 46 -72
150 -434 142 -491 -3 -22 0 -30 15 -35 32 -10 57 -37 79 -84 11 -25 27 -51 36
-58 11 -8 15 -25 13 -51 -1 -22 4 -52 12 -68 13 -27 48 -161 63 -248 12 -70 3
-187 -22 -282 -13 -50 -24 -102 -24 -116 0 -24 -79 -117 -100 -117 -5 0 -12
-21 -15 -47 -4 -27 -16 -75 -27 -108 l-21 -61 25 -56 c23 -49 113 -152 169
-193 112 -81 165 -110 199 -111 27 0 49 -9 75 -30 157 -126 170 -134 325 -195
182 -72 420 -158 470 -170 246 -58 421 -132 599 -254 24 -16 54 -37 67 -46 89
-59 218 -197 369 -394 38 -49 72 -92 75 -95 3 -3 44 -57 92 -120 47 -63 104
-138 126 -167 60 -79 108 -172 132 -259 11 -43 25 -83 30 -89 15 -18 38 -97
43 -149 6 -58 46 -121 97 -151 29 -17 54 -20 151 -21 80 -1 125 -6 145 -16 16
-9 41 -18 55 -21 15 -4 41 -20 59 -37 l33 -31 -23 -24 c-13 -14 -31 -25 -39
-25 -16 0 -74 -32 -96 -53 -29 -27 -60 -51 -114 -84 -31 -20 -58 -39 -61 -42
-19 -23 -105 -51 -169 -56 -31 -3 -90 -10 -132 -16 -83 -12 -191 2 -188 24 3
28 -3 35 -43 41 -42 7 -129 46 -152 68 -43 41 -76 63 -173 110 -99 48 -195
102 -226 126 -41 31 -246 104 -334 119 -40 6 -51 -13 -30 -54 8 -15 25 -77 37
-138 12 -60 37 -171 55 -245 36 -143 55 -281 55 -405 0 -58 -6 -90 -25 -138
-27 -66 -35 -110 -36 -216 -1 -114 -16 -159 -69 -211 -55 -54 -104 -79 -225
-114 -110 -32 -155 -34 -162 -6 -3 11 -5 22 -4 25 1 3 -18 20 -41 38 -47 36
-57 63 -36 99 14 25 19 152 19 509 1 201 0 208 -24 255 -29 56 -48 74 -114
108 -308 155 -734 229 -1054 182 -64 -9 -184 -23 -265 -31 -185 -17 -392 -60
-419 -85 -11 -10 -41 -23 -66 -29 -80 -18 -101 -30 -159 -91 -32 -33 -62 -60
-67 -60 -5 0 -38 -25 -73 -55 -83 -70 -203 -123 -319 -140 -213 -32 -286 -38
-465 -39 -228 -1 -426 11 -481 30 -71 24 -189 82 -219 108 -16 14 -45 29 -65
32 -20 4 -58 17 -86 29 -94 43 -140 62 -180 75 -22 7 -43 19 -48 26 -4 7 -37
22 -74 34 -126 41 -155 67 -131 118 18 38 51 41 389 35 188 -3 318 -1 380 7
52 6 103 13 114 14 40 5 93 38 151 94 32 31 81 77 108 101 81 73 96 128 54
199 -13 21 -28 47 -34 57 -49 87 -348 195 -596 214 -191 15 -327 -1 -498 -61
-88 -31 -244 -109 -317 -159 -23 -16 -45 -29 -48 -29 -17 0 -244 -160 -330
-233 -5 -4 -41 -31 -80 -58 -38 -28 -80 -60 -92 -71 -12 -11 -30 -21 -40 -22
-10 -1 -37 -14 -60 -30 -44 -29 -112 -43 -157 -32 -34 8 -49 59 -41 133 17
145 64 230 211 382 56 58 115 121 130 139 70 81 276 246 419 334 l60 38 -56 0
c-31 0 -81 -5 -110 -10 -30 -6 -101 -15 -159 -21 -281 -26 -728 -148 -1125
-306 -249 -100 -319 -132 -418 -197 -45 -29 -131 -82 -191 -117 -60 -35 -132
-86 -159 -114 -51 -51 -87 -64 -107 -40 -32 38 0 125 98 269 127 187 247 330
407 484 155 149 195 183 360 306 72 53 135 100 140 104 18 14 228 147 290 184
33 20 121 65 195 100 74 35 146 70 160 76 22 11 17 12 -35 7 -271 -22 -369
-27 -506 -21 -180 7 -441 47 -509 77 -58 27 -113 43 -228 69 -110 24 -155 45
-207 97 -57 56 -75 92 -75 145 0 35 6 54 24 75 23 26 28 27 96 25 40 -2 84 -8
99 -13 49 -19 220 -12 386 15 215 35 232 40 365 101 63 30 133 61 154 70 l39
15 -27 29 c-15 16 -49 37 -74 46 -26 10 -59 26 -74 36 -14 11 -29 19 -34 19
-37 0 -124 119 -124 170 0 53 127 173 230 217 8 3 26 14 40 23 35 24 234 79
416 115 51 10 136 68 199 135 34 36 153 211 162 239 3 9 16 30 28 46 12 17 27
45 33 64 10 28 9 37 -3 51 -9 10 -18 28 -20 40 -2 13 -24 48 -48 79 -102 131
-165 247 -245 451 -61 153 -92 285 -107 450 -22 245 -18 394 16 548 5 23 18
93 29 155 25 149 121 380 224 541 20 31 36 58 36 61 0 2 32 52 71 112 118 179
226 294 374 400 70 51 92 61 190 85 224 57 476 58 839 2 197 -30 190 -30 182
0 -14 58 29 190 100 302 61 98 223 244 269 244 8 0 15 4 15 9 0 21 103 25 142
5z"/>
<path d="M5025 8928 c-39 -15 -95 -50 -139 -89 -28 -24 -36 -39 -36 -65 0 -72
64 -184 129 -227 67 -44 175 -77 254 -77 96 0 103 5 81 61 -27 67 -63 130 -99
170 -18 20 -40 58 -50 85 -40 108 -54 134 -80 144 -15 6 -27 10 -28 9 -1 0
-15 -5 -32 -11z"/>
<path d="M4731 8634 l-32 -68 42 -82 c56 -110 128 -199 187 -228 26 -13 81
-42 122 -66 176 -100 195 -108 274 -120 44 -6 103 -9 132 -5 50 6 54 5 54 -14
0 -12 5 -21 10 -21 13 0 13 1 -5 84 -12 57 -24 81 -76 150 -34 44 -66 91 -72
104 -6 13 -16 21 -25 17 -7 -3 -44 -8 -80 -11 -55 -5 -83 -1 -157 21 -174 51
-249 108 -310 238 l-32 68 -32 -67z"/>
<path d="M3795 8334 c-27 -7 -70 -14 -94 -14 -59 0 -167 -55 -270 -136 -161
-128 -436 -505 -523 -719 -24 -58 -72 -283 -82 -380 -4 -33 -9 -78 -13 -100
-8 -54 -8 -419 1 -525 16 -198 57 -338 166 -565 70 -145 200 -333 245 -353 21
-10 24 -16 18 -44 -3 -18 -13 -43 -22 -54 -112 -149 -163 -219 -196 -273 -41
-64 -101 -142 -171 -219 -37 -40 -48 -45 -204 -93 -493 -150 -493 -151 -529
-217 -16 -29 8 -51 96 -92 37 -18 95 -44 128 -60 37 -17 87 -30 131 -35 68 -6
74 -5 128 25 31 18 58 36 61 41 3 5 21 16 40 25 19 9 35 20 35 25 0 5 5 9 11
9 10 0 39 21 124 92 11 9 56 44 100 79 44 35 100 80 124 101 50 43 86 49 94
16 12 -44 -23 -84 -183 -208 -52 -40 -100 -79 -105 -85 -19 -22 -185 -136
-253 -173 -24 -13 -62 -40 -84 -60 -23 -20 -64 -58 -92 -83 -88 -79 -300 -192
-458 -243 -117 -38 -320 -76 -443 -83 -87 -5 -104 -8 -85 -16 14 -6 48 -21 76
-33 50 -22 65 -26 194 -59 36 -10 92 -26 125 -38 51 -18 82 -20 210 -19 83 0
220 8 305 16 252 26 432 36 614 37 306 0 698 -54 810 -113 25 -13 43 -32 90
-90 42 -52 89 -75 115 -56 9 7 17 13 19 14 9 5 11 74 2 74 -6 0 -10 39 -10
100 0 83 -5 115 -30 193 -38 118 -38 133 -2 140 15 3 29 1 30 -4 2 -5 9 -9 16
-9 7 0 23 -33 35 -72 12 -40 29 -93 38 -118 60 -182 24 -345 -137 -608 -49
-82 -173 -215 -233 -250 -15 -9 -26 -21 -24 -26 6 -17 -26 -46 -50 -46 -46 0
-153 -48 -234 -106 -46 -32 -110 -72 -142 -89 -31 -16 -83 -49 -115 -73 -31
-24 -79 -54 -107 -67 -54 -25 -244 -190 -310 -270 -22 -27 -45 -54 -52 -61
-22 -22 -85 -143 -81 -158 2 -10 34 9 101 62 86 67 155 118 207 153 34 22 242
156 287 184 80 51 293 152 378 180 123 40 141 45 192 55 27 5 84 16 128 25 85
16 309 23 385 11 117 -18 187 -38 252 -72 31 -17 42 -18 33 -4 -17 28 61 -16
115 -65 14 -12 44 -33 68 -45 36 -20 42 -28 42 -56 0 -22 13 -48 44 -89 l45
-57 20 69 c11 37 27 93 36 123 71 239 76 332 35 615 -16 105 -26 200 -23 211
3 16 12 21 31 21 35 -2 62 -32 62 -71 1 -17 7 -71 15 -121 54 -327 44 -458
-57 -765 -22 -69 -42 -138 -44 -155 -2 -16 -16 -79 -33 -140 -30 -109 -30
-110 -93 -169 -90 -84 -238 -176 -285 -176 -10 0 -30 -6 -44 -14 -36 -18 -155
-53 -209 -60 -25 -3 -82 -7 -128 -7 -99 -2 -97 -14 7 -48 38 -12 72 -29 75
-37 4 -9 21 -14 53 -14 36 0 53 -5 66 -20 9 -11 27 -20 39 -20 13 0 84 -13
158 -30 149 -32 308 -40 430 -20 36 6 115 17 175 24 250 31 319 55 385 134 74
88 112 122 165 152 22 12 63 35 90 51 76 45 187 99 205 99 9 0 20 4 26 9 12
12 198 49 284 56 36 3 79 7 95 10 61 9 396 20 585 19 186 -1 203 -3 385 -41
151 -32 210 -49 284 -83 79 -37 96 -42 112 -32 15 10 30 10 62 1 110 -29 218
-234 252 -478 18 -129 4 -307 -46 -559 -6 -30 -8 -56 -6 -59 14 -14 83 27 125
73 115 128 131 166 143 338 5 72 13 150 18 173 4 24 7 53 5 65 -51 346 -102
524 -178 616 -13 15 -41 54 -64 87 -43 64 -143 169 -284 300 -47 45 -119 119
-159 165 -145 169 -278 306 -360 370 -151 118 -185 166 -143 201 13 10 21 9
47 -6 18 -10 40 -25 49 -34 27 -25 47 -41 52 -41 16 0 248 -225 331 -323 95
-111 180 -201 255 -271 110 -104 270 -268 270 -278 0 -19 18 -5 48 37 48 68
97 89 212 90 l95 0 115 -58 c114 -59 134 -71 279 -171 42 -29 90 -59 106 -68
17 -8 75 -39 130 -68 163 -87 242 -124 310 -145 68 -20 124 -19 198 6 79 26
221 112 192 116 -157 22 -280 75 -335 145 -54 69 -102 195 -115 303 -9 76 -36
160 -80 247 -43 85 -157 268 -199 319 -12 14 -30 38 -41 54 -28 41 -110 130
-174 189 -30 28 -62 58 -70 66 -43 41 -120 98 -170 128 -58 33 -297 152 -307
152 -3 0 -31 12 -62 26 -31 14 -74 32 -97 39 -22 8 -128 46 -235 86 -107 39
-226 82 -265 96 -161 58 -382 164 -598 286 -63 35 -226 167 -301 243 -173 175
-218 358 -120 484 l36 45 -39 2 c-159 10 -253 34 -276 70 -4 7 -19 13 -32 13
-30 0 -73 50 -79 93 -3 18 -8 84 -11 148 -3 64 -10 131 -15 150 -6 18 -10 77
-11 130 -1 86 2 105 27 161 40 90 95 175 124 189 14 7 40 24 57 36 44 32 113
63 141 63 34 0 31 16 -44 255 -14 46 -64 167 -85 207 -5 10 -43 84 -85 165
-78 152 -246 414 -386 601 -44 59 -83 109 -87 112 -4 3 -31 34 -59 70 -93 115
-175 199 -289 295 -61 52 -114 95 -116 95 -2 0 -62 38 -132 85 -70 46 -148 92
-174 101 -141 52 -202 82 -266 133 -70 56 -131 86 -235 118 -74 22 -64 20
-164 37 -49 9 -96 17 -105 20 -9 3 -54 7 -101 11 -46 3 -88 9 -93 12 -5 3 -89
7 -186 8 -126 2 -190 -1 -226 -11z m2621 -2301 c19 -25 19 -26 -31 -62 -50
-36 -73 -74 -101 -166 -23 -76 -32 -89 -51 -74 -7 7 -16 9 -20 5 -3 -3 -12 3
-20 14 -11 15 -11 28 -2 67 12 49 59 156 81 183 40 49 118 67 144 33z m-1656
-89 c8 -14 42 -38 86 -59 40 -19 91 -51 113 -70 48 -43 100 -147 108 -215 5
-47 5 -47 -25 -52 -40 -6 -58 9 -72 62 -7 25 -19 59 -28 75 -21 41 -87 102
-120 110 -38 9 -120 64 -134 89 -11 19 -12 61 -2 77 2 3 16 6 32 7 21 0 33 -6
42 -24z m-233 -133 c29 -29 60 -46 128 -70 175 -61 225 -97 247 -179 6 -20 24
-65 40 -100 88 -183 27 -453 -136 -598 -61 -54 -212 -147 -287 -176 -144 -54
-357 -22 -460 70 -56 50 -132 153 -161 219 -25 56 -21 131 12 263 62 245 126
347 286 458 32 23 86 62 119 88 71 55 88 63 137 63 30 1 44 -6 75 -38z m1729
-779 c6 -4 14 -24 18 -45 7 -39 50 -79 178 -169 30 -21 61 -51 71 -67 17 -28
16 -29 -9 -45 -24 -16 -27 -16 -54 1 -15 10 -56 35 -90 56 -72 44 -156 120
-177 160 -30 58 17 140 63 109z m-1394 -314 c8 -13 12 -31 10 -40 -3 -17 -120
-104 -234 -175 -83 -53 -157 -41 -158 23 0 23 28 38 93 50 20 3 37 10 37 15 0
5 6 9 14 9 8 0 16 4 18 8 2 5 31 29 66 53 131 91 132 91 154 57z m-483 -1874
c10 -9 -35 -3 -49 6 -11 8 -7 9 15 4 17 -4 32 -8 34 -10z"/>
<path d="M4440 5673 c-90 -16 -132 -36 -181 -86 -100 -102 -140 -181 -190
-377 -45 -178 -47 -209 -15 -274 15 -31 42 -66 59 -78 18 -12 34 -25 37 -30 9
-12 90 -39 146 -48 69 -11 178 10 257 52 178 93 322 345 285 497 -16 69 -30
91 -95 151 -32 30 -70 73 -84 95 -14 22 -33 48 -43 57 -25 26 -128 50 -176 41z
m126 -328 c14 -22 15 -31 4 -70 -11 -39 -10 -47 8 -77 23 -39 46 -139 37 -167
-3 -10 -17 -22 -32 -25 -35 -9 -59 15 -74 75 -7 27 -17 49 -21 49 -5 0 -27 -9
-49 -20 -22 -12 -48 -18 -58 -15 -28 9 -44 55 -31 89 13 34 6 46 -25 46 -30 0
-77 18 -87 33 -14 21 -8 46 14 67 24 22 55 22 162 -2 47 -10 50 -10 68 16 25
34 62 34 84 1z"/>
<path d="M5507 7990 c-11 -13 -29 -20 -54 -20 -37 0 -37 0 53 -61 84 -57 108
-76 212 -164 23 -20 42 -35 42 -33 0 15 -56 75 -86 93 -36 22 -86 90 -122 167
-20 44 -22 45 -45 18z"/>
<path d="M6567 5883 c-4 -3 -7 -11 -7 -17 0 -6 5 -5 12 2 6 6 9 14 7 17 -3 3
-9 2 -12 -2z"/>
<path d="M6695 5843 c-86 -57 -153 -123 -179 -176 -26 -54 -26 -56 -26 -283 0
-126 4 -234 8 -240 4 -5 31 -23 61 -38 52 -27 58 -28 164 -23 l110 5 19 38
c10 21 20 49 23 62 2 13 8 38 14 55 13 44 23 140 22 215 -1 44 -8 76 -25 110
-13 26 -29 73 -36 104 -11 47 -21 65 -66 109 -55 54 -64 73 -41 82 6 3 7 6 2
6 -6 1 -28 -11 -50 -26z m51 -312 c21 -25 29 -28 66 -24 36 4 45 1 55 -16 17
-28 0 -65 -43 -92 -27 -16 -33 -27 -39 -69 -7 -52 -18 -67 -50 -70 -37 -4 -43
0 -64 50 -20 46 -24 50 -55 50 -30 0 -35 4 -41 30 -7 34 8 55 48 65 19 5 26
15 30 42 11 68 51 83 93 34z"/>
<path d="M2980 3669 c-176 -30 -538 -193 -767 -347 -63 -43 -129 -86 -147 -97
-19 -11 -49 -32 -67 -47 -19 -15 -68 -52 -109 -83 -101 -75 -168 -135 -329
-295 -122 -121 -171 -179 -303 -353 -51 -66 -51 -86 0 -56 20 13 39 27 40 31
2 4 9 8 16 8 7 0 55 28 106 61 132 87 162 101 460 219 243 96 222 89 385 138
246 76 344 103 370 104 2 0 26 6 52 14 49 15 162 33 383 59 69 9 150 19 180
24 30 5 109 9 176 9 67 0 131 3 143 7 27 8 211 145 244 182 95 103 111 125
101 137 -5 7 -21 31 -36 54 -21 32 -46 50 -115 84 -137 67 -169 78 -318 108
-72 14 -140 20 -241 20 -117 0 -143 3 -148 15 -3 8 -9 14 -13 14 -4 -1 -33 -5
-63 -10z"/>
</g>
</svg>
